<?xml version="1.0" encoding="UTF-8" standalone="no"?>
<!-- Created with Inkscape (http://www.inkscape.org/) -->

<svg
   xmlns:dc="http://purl.org/dc/elements/1.1/"
   xmlns:cc="http://creativecommons.org/ns#"
   xmlns:rdf="http://www.w3.org/1999/02/22-rdf-syntax-ns#"
   xmlns:svg="http://www.w3.org/2000/svg"
   xmlns="http://www.w3.org/2000/svg"
   xmlns:sodipodi="http://sodipodi.sourceforge.net/DTD/sodipodi-0.dtd"
   xmlns:inkscape="http://www.inkscape.org/namespaces/inkscape"
   width="4192.9038mm"
   height="2885.8962mm"
   viewBox="0 0 4192.9038 2885.8962"
   version="1.1"
   id="svg8"
   inkscape:version="0.92.4 (5da689c313, 2019-01-14)"
   sodipodi:docname="colorful.svg">
  <defs
     id="defs2">
    <path
       id="a"
       d="M 0,0 H 24 V 24 H 0 Z"
       inkscape:connector-curvature="0" />
  </defs>
  <sodipodi:namedview
     id="base"
     pagecolor="#ffffff"
     bordercolor="#666666"
     borderopacity="1.0"
     inkscape:pageopacity="0.0"
     inkscape:pageshadow="2"
     inkscape:zoom="0.12374369"
     inkscape:cx="4732.5319"
     inkscape:cy="6294.9367"
     inkscape:document-units="mm"
     inkscape:current-layer="layer1"
     showgrid="false"
     inkscape:window-width="3840"
     inkscape:window-height="2066"
     inkscape:window-x="2509"
     inkscape:window-y="660"
     inkscape:window-maximized="1"
     fit-margin-top="0"
     fit-margin-left="0"
     fit-margin-right="0"
     fit-margin-bottom="0" />
  <metadata
     id="metadata5">
    <rdf:RDF>
      <cc:Work
         rdf:about="">
        <dc:format>image/svg+xml</dc:format>
        <dc:type
           rdf:resource="http://purl.org/dc/dcmitype/StillImage" />
        <dc:title />
      </cc:Work>
    </rdf:RDF>
  </metadata>
  <g
     inkscape:label="Livello 1"
     inkscape:groupmode="layer"
     id="layer1"
     transform="translate(1910.818,3305.69)">
    <rect
       style="fill:#aaeeff;fill-opacity:1;stroke:#aaeeff;stroke-width:2.36484575;stroke-linecap:butt;stroke-miterlimit:4;stroke-dasharray:none;stroke-opacity:1"
       id="esterno"
       width="4187.7168"
       height="480.78601"
       x="-1909.6356"
       y="-3304.5076"
       ry="119.44067"
       rx="111.94479"
       inkscape:label="#rect931" />
    <rect
       style="fill:#aaeeff;fill-opacity:1;stroke:#aaeeff;stroke-width:2.36484575;stroke-linecap:butt;stroke-miterlimit:4;stroke-dasharray:none;stroke-opacity:1"
       id="disimpegno"
       width="1162.8176"
       height="794.07855"
       x="910.45209"
       y="-2627.7903"
       ry="119.44066"
       rx="111.9448"
       inkscape:label="#rect931-5" />
    <rect
       style="fill:#aaeeff;fill-opacity:1;stroke:#aaeeff;stroke-width:2.36484575;stroke-linecap:butt;stroke-miterlimit:4;stroke-dasharray:none;stroke-opacity:1"
       id="bagno"
       width="1159.7938"
       height="1172.0548"
       x="914.01575"
       y="-1786.0764"
       ry="119.44066"
       rx="111.94481"
       inkscape:label="#rect931-5-9" />
    <rect
       style="fill:#aaeeff;fill-opacity:1;stroke:#aaeeff;stroke-width:2.36484599;stroke-linecap:butt;stroke-miterlimit:4;stroke-dasharray:none;stroke-opacity:1"
       id="soggiorno"
       width="2447.5916"
       height="2028.1641"
       x="-1705.4569"
       y="-2644.2502"
       ry="119.44066"
       rx="111.9448"
       inkscape:label="#rect931-5-5" />
    <rect
       style="fill:#006680;fill-opacity:1;stroke:#00aad4;stroke-width:2.36484599;stroke-linecap:butt;stroke-miterlimit:4;stroke-dasharray:none;stroke-opacity:1"
       id="rect931-5-4"
       width="198.2224"
       height="1356.5072"
       x="715.79333"
       y="-1970.5288"
       ry="119.44067"
       rx="111.94482" />
    <rect
       style="fill:#006680;fill-opacity:1;stroke:#00aad4;stroke-width:2.36484599;stroke-linecap:butt;stroke-miterlimit:4;stroke-dasharray:none;stroke-opacity:1"
       id="rect931-5-4-4"
       width="198.2224"
       height="464.4834"
       x="712.22968"
       y="-2627.7903"
       ry="119.44067"
       rx="111.94482" />
    <rect
       style="fill:#006680;fill-opacity:1;stroke:#00aad4;stroke-width:2.36484599;stroke-linecap:butt;stroke-miterlimit:4;stroke-dasharray:none;stroke-opacity:1"
       id="rect931-5-4-42"
       width="198.2224"
       height="3005.1404"
       x="-2823.7214"
       y="-2270.7751"
       ry="119.44067"
       rx="111.94482"
       transform="rotate(90)" />
    <rect
       style="fill:#006680;fill-opacity:1;stroke:#00aad4;stroke-width:2.36484599;stroke-linecap:butt;stroke-miterlimit:4;stroke-dasharray:none;stroke-opacity:1"
       id="rect931-5-4-42-9"
       width="198.2224"
       height="4183.6924"
       x="-619.19849"
       y="-2274.0569"
       ry="119.44067"
       rx="111.94482"
       transform="rotate(90)" />
    <rect
       style="fill:#006680;fill-opacity:1;stroke:#00aad4;stroke-width:2.36484599;stroke-linecap:butt;stroke-miterlimit:4;stroke-dasharray:none;stroke-opacity:1"
       id="rect931-5-4-42-7"
       width="198.2224"
       height="591.22351"
       x="-2844.3086"
       y="1302.3761"
       ry="119.44067"
       rx="111.94482"
       transform="rotate(90)" />
    <rect
       style="fill:#006680;fill-opacity:1;stroke:#00aad4;stroke-width:2.36484599;stroke-linecap:butt;stroke-miterlimit:4;stroke-dasharray:none;stroke-opacity:1"
       id="rect931-5-4-0"
       width="198.2224"
       height="2402.7454"
       x="-1909.6356"
       y="-2823.7214"
       ry="119.44066"
       rx="111.94482" />
    <rect
       style="fill:#006680;fill-opacity:1;stroke:#00aad4;stroke-width:2.36484599;stroke-linecap:butt;stroke-miterlimit:4;stroke-dasharray:none;stroke-opacity:1"
       id="rect931-5-4-0-5"
       width="198.2224"
       height="2402.7454"
       x="2082.6812"
       y="-2828.833"
       ry="119.44066"
       rx="111.94482" />
    <rect
       style="fill:#006680;fill-opacity:1;stroke:#00aad4;stroke-width:2.36484599;stroke-linecap:butt;stroke-miterlimit:4;stroke-dasharray:none;stroke-opacity:1"
       id="rect931-5-4-42-2"
       width="198.2224"
       height="292.78351"
       x="-1970.5288"
       y="-1206.7993"
       ry="119.44067"
       rx="111.94482"
       transform="rotate(90)" />
    <rect
       style="fill:#006680;fill-opacity:1;stroke:#00aad4;stroke-width:2.36484599;stroke-linecap:butt;stroke-miterlimit:4;stroke-dasharray:none;stroke-opacity:1"
       id="rect931-5-4-42-2-3"
       width="198.2224"
       height="561.90259"
       x="-1984.2987"
       y="-2073.8096"
       ry="119.44067"
       rx="111.94482"
       transform="rotate(90)" />
    <text
       xml:space="preserve"
       style="font-style:normal;font-weight:normal;font-size:10.58333302px;line-height:1.25;font-family:sans-serif;letter-spacing:0px;word-spacing:0px;fill:#000000;fill-opacity:1;stroke:none;stroke-width:0.26458332"
       x="-54.638985"
       y="-3112.1567"
       id="text841-2"
       class="xesterno"><tspan
         sodipodi:role="line"
         id="tspan839-8"
         x="-54.638985"
         y="-3112.1567"
         style="font-size:105.83333588px;stroke-width:0.26458332">ESTERNO</tspan></text>
    <text
       xml:space="preserve"
       style="font-style:normal;font-weight:normal;font-size:105.83333588px;line-height:1.25;font-family:sans-serif;letter-spacing:0px;word-spacing:0px;fill:#000000;fill-opacity:1;stroke:none;stroke-width:0.26458332"
       x="-154.366"
       y="-2984.7126"
       id="testerno"
       inkscape:label="#text879-5"><tspan
         sodipodi:role="line"
         id="tspan877-5"
         x="-154.366"
         y="-2984.7126"
         style="stroke-width:0.26458332">_ 째C</tspan></text>
    <text
       xml:space="preserve"
       style="font-style:normal;font-weight:normal;font-size:105.83333588px;line-height:1.25;font-family:sans-serif;letter-spacing:0px;word-spacing:0px;fill:#000000;fill-opacity:1;stroke:none;stroke-width:0.26458332"
       x="364.52655"
       y="-2986.386"
       id="hesterno"
       inkscape:label="#text883-5"><tspan
         sodipodi:role="line"
         id="tspan881-4"
         x="364.52655"
         y="-2986.386"
         style="stroke-width:0.26458332">_ %</tspan></text>
    <path
       id="path882-2"
       clip-path="url(#b)"
       d="m 809.744,-3089.2076 v -40.6515 c 0,-15.0035 12.1769,-27.1763 27.1763,-27.1763 14.9993,0 27.1763,12.1728 27.1763,27.1763 v 40.6515 c 13.1506,-8.8041 21.7369,-23.6966 21.7369,-40.6515 0,-27.0653 -21.8479,-48.9173 -48.9132,-48.9173 -27.0654,0 -48.9132,21.852 -48.9132,48.9173 0,16.9549 8.5863,31.8474 21.7369,40.6515 z m 106.9591,50.3264 -49.3487,-24.5634 c -1.8487,-0.7395 -3.8207,-1.1914 -5.8666,-1.1914 h -8.2618 v -65.219 c 0,-9.0218 -7.2839,-16.3058 -16.3057,-16.3058 -9.0218,0 -16.3058,7.284 -16.3058,16.3058 v 116.741 l -37.2827,-7.8263 c -0.8627,0 -1.6433,-0.4109 -2.5882,-0.4109 -3.3688,0 -6.413,1.3968 -8.5863,3.5743 l -8.5863,8.6931 53.6952,53.6993 c 2.9169,2.9169 7.0663,4.7821 11.5238,4.7821 h 73.8053 c 8.1508,0 14.457,-5.9776 15.6525,-13.9148 l 8.1509,-57.2818 c 0,-0.7394 0.4108,-1.52 0.4108,-2.1774 0,-6.7416 -4.1288,-12.6124 -9.8928,-15.0034 z"
       inkscape:connector-curvature="0"
       style="fill:#ffffff;stroke-width:0.26458314"
       class="xesterno" />
    <text
       xml:space="preserve"
       style="font-style:normal;font-weight:normal;font-size:10.58333302px;line-height:1.25;font-family:sans-serif;letter-spacing:0px;word-spacing:0px;fill:#000000;fill-opacity:1;stroke:none;stroke-width:0.26458332"
       x="-848.33008"
       y="-1809.8733"
       id="text841"
       class="xsoggiorno"><tspan
         sodipodi:role="line"
         id="tspan839"
         x="-848.33008"
         y="-1809.8733"
         style="font-size:105.83333588px;stroke-width:0.26458332">SOGGIORNO</tspan></text>
    <text
       xml:space="preserve"
       style="font-style:normal;font-weight:normal;font-size:105.83332825px;line-height:1.25;font-family:sans-serif;letter-spacing:0px;word-spacing:0px;fill:#000000;fill-opacity:1;stroke:none;stroke-width:0.26458332"
       x="-881.5957"
       y="-1712.3638"
       id="tsoggiorno"
       inkscape:label="#text879"><tspan
         sodipodi:role="line"
         id="tspan877"
         x="-881.5957"
         y="-1712.3638"
         style="stroke-width:0.26458332">_ 째C</tspan></text>
    <text
       xml:space="preserve"
       style="font-style:normal;font-weight:normal;font-size:105.83332825px;line-height:1.25;font-family:sans-serif;letter-spacing:0px;word-spacing:0px;fill:#000000;fill-opacity:1;stroke:none;stroke-width:0.26458332"
       x="-338.68994"
       y="-1705.4845"
       id="hsoggiorno"
       inkscape:label="#text883"><tspan
         sodipodi:role="line"
         id="tspan881"
         x="-338.68994"
         y="-1705.4845"
         style="stroke-width:0.26458332">_ %</tspan></text>
    <path
       id="path882"
       clip-path="url(#b)"
       d="m -544.49338,-1496.2957 v -40.6515 c 0,-15.0034 12.177,-27.1762 27.1763,-27.1762 14.9993,0 27.1763,12.1728 27.1763,27.1762 v 40.6515 c 13.1506,-8.8041 21.7369,-23.6966 21.7369,-40.6515 0,-27.0653 -21.8478,-48.9173 -48.9132,-48.9173 -27.0654,0 -48.9132,21.852 -48.9132,48.9173 0,16.9549 8.5863,31.8474 21.7369,40.6515 z m 106.9591,50.3264 -49.3486,-24.5634 c -1.8488,-0.7395 -3.8207,-1.1914 -5.8667,-1.1914 h -8.2617 v -65.2189 c 0,-9.0218 -7.284,-16.3058 -16.3058,-16.3058 -9.0218,0 -16.3058,7.284 -16.3058,16.3058 v 116.7409 l -37.2826,-7.8263 c -0.8628,0 -1.6433,-0.4108 -2.5882,-0.4108 -3.3688,0 -6.4131,1.3968 -8.5863,3.5742 l -8.5864,8.6931 53.6953,53.6994 c 2.9169,2.9168 7.0662,4.782 11.5237,4.782 h 73.8053 c 8.1508,0 14.457,-5.9776 15.6526,-13.9148 l 8.1508,-57.2817 c 0,-0.7395 0.4108,-1.5201 0.4108,-2.1774 0,-6.7417 -4.1288,-12.6125 -9.8927,-15.0034 z"
       inkscape:connector-curvature="0"
       style="fill:#ffffff;stroke-width:0.26458314"
       class="xsoggiorno" />
    <text
       xml:space="preserve"
       style="font-style:normal;font-weight:normal;font-size:10.58333302px;line-height:1.25;font-family:sans-serif;letter-spacing:0px;word-spacing:0px;fill:#000000;fill-opacity:1;stroke:none;stroke-width:0.26458332"
       x="1333.8047"
       y="-1399.9551"
       id="text845"
       class="xbagno"><tspan
         sodipodi:role="line"
         id="tspan843"
         x="1333.8047"
         y="-1399.9551"
         style="font-size:105.83333588px;stroke-width:0.26458332">BAGNO</tspan></text>
    <text
       xml:space="preserve"
       style="font-style:normal;font-weight:normal;font-size:105.83333588px;line-height:1.25;font-family:sans-serif;letter-spacing:0px;word-spacing:0px;fill:#000000;fill-opacity:1;stroke:none;stroke-width:0.26458332"
       x="1128.7239"
       y="-1261.14"
       id="tbagno"
       inkscape:label="#text879-0"><tspan
         sodipodi:role="line"
         id="tspan877-8"
         x="1128.7239"
         y="-1261.14"
         style="stroke-width:0.26458332">_ 째C</tspan></text>
    <text
       xml:space="preserve"
       style="font-style:normal;font-weight:normal;font-size:105.83333588px;line-height:1.25;font-family:sans-serif;letter-spacing:0px;word-spacing:0px;fill:#000000;fill-opacity:1;stroke:none;stroke-width:0.26458332"
       x="1645.0996"
       y="-1267.0896"
       id="hbagno"
       inkscape:label="#text883-8"><tspan
         sodipodi:role="line"
         id="tspan881-3"
         x="1645.0996"
         y="-1267.0896"
         style="stroke-width:0.26458332">_ %</tspan></text>
    <path
       id="path882-7"
       clip-path="url(#b)"
       d="m 1505.2202,-1011.8505 v -40.6515 c 0,-15.0035 12.1769,-27.1763 27.1763,-27.1763 14.9993,0 27.1763,12.1728 27.1763,27.1763 v 40.6515 c 13.1506,-8.8041 21.7369,-23.6966 21.7369,-40.6515 0,-27.0653 -21.8479,-48.9173 -48.9132,-48.9173 -27.0654,0 -48.9132,21.852 -48.9132,48.9173 0,16.9549 8.5863,31.8474 21.7369,40.6515 z m 106.9591,50.32643 -49.3487,-24.5634 c -1.8487,-0.7395 -3.8207,-1.1914 -5.8666,-1.1914 h -8.2618 v -65.21903 c 0,-9.0218 -7.2839,-16.3058 -16.3057,-16.3058 -9.0218,0 -16.3058,7.284 -16.3058,16.3058 v 116.74103 l -37.2827,-7.8263 c -0.8627,0 -1.6433,-0.4109 -2.5882,-0.4109 -3.3688,0 -6.413,1.3968 -8.5863,3.5743 l -8.5863,8.6931 53.6952,53.6993 c 2.9169,2.9169 7.0663,4.7821 11.5238,4.7821 h 73.8053 c 8.1508,0 14.457,-5.9776 15.6525,-13.9148 l 8.1509,-57.2818 c 0,-0.7394 0.4108,-1.52 0.4108,-2.1774 0,-6.7416 -4.1288,-12.6124 -9.8928,-15.0034 z"
       inkscape:connector-curvature="0"
       style="fill:#ffffff;stroke-width:0.26458314"
       class="xbagno" />
    <text
       xml:space="preserve"
       style="font-style:normal;font-weight:normal;font-size:105.83332825px;line-height:1.25;font-family:sans-serif;letter-spacing:0px;word-spacing:0px;fill:#000000;fill-opacity:1;stroke:none;stroke-width:0.26458332"
       x="1175.2772"
       y="-2169.7283"
       id="text849"
       class="xdisimpegno"><tspan
         sodipodi:role="line"
         id="tspan847"
         x="1175.2772"
         y="-2169.7283"
         style="stroke-width:0.26458332">DISIMPEGNO</tspan></text>
    <text
       xml:space="preserve"
       style="font-style:normal;font-weight:normal;font-size:105.83333588px;line-height:1.25;font-family:sans-serif;letter-spacing:0px;word-spacing:0px;fill:#000000;fill-opacity:1;stroke:none;stroke-width:0.26458332"
       x="1154.0778"
       y="-2035.1895"
       id="tdisimpegno"
       inkscape:label="#text879-8"><tspan
         sodipodi:role="line"
         id="tspan877-0"
         x="1154.0778"
         y="-2035.1895"
         style="stroke-width:0.26458332">_ 째C</tspan></text>
    <text
       xml:space="preserve"
       style="font-style:normal;font-weight:normal;font-size:105.83333588px;line-height:1.25;font-family:sans-serif;letter-spacing:0px;word-spacing:0px;fill:#000000;fill-opacity:1;stroke:none;stroke-width:0.26458332"
       x="1666.1774"
       y="-2036.8628"
       id="hdisimpegno"
       inkscape:label="#text883-9"><tspan
         sodipodi:role="line"
         id="tspan881-8"
         x="1666.1774"
         y="-2036.8628"
         style="stroke-width:0.26458332">_ %</tspan></text>
    <path
       id="path882-1"
       clip-path="url(#b)"
       d="m 1458.7322,-2490.4932 v -40.6515 c 0,-15.0035 12.1769,-27.1763 27.1763,-27.1763 14.9993,0 27.1763,12.1728 27.1763,27.1763 v 40.6515 c 13.1506,-8.8041 21.7369,-23.6966 21.7369,-40.6515 0,-27.0653 -21.8479,-48.9173 -48.9132,-48.9173 -27.0654,0 -48.9132,21.852 -48.9132,48.9173 0,16.9549 8.5863,31.8474 21.7369,40.6515 z m 106.9591,50.3264 -49.3487,-24.5634 c -1.8487,-0.7395 -3.8207,-1.1914 -5.8666,-1.1914 h -8.2618 v -65.219 c 0,-9.0218 -7.2839,-16.3058 -16.3057,-16.3058 -9.0218,0 -16.3058,7.284 -16.3058,16.3058 v 116.741 l -37.2827,-7.8263 c -0.8627,0 -1.6433,-0.4109 -2.5882,-0.4109 -3.3688,0 -6.413,1.3968 -8.5863,3.5743 l -8.5863,8.6931 53.6952,53.6993 c 2.9169,2.9169 7.0663,4.7821 11.5238,4.7821 h 73.8053 c 8.1508,0 14.457,-5.9776 15.6525,-13.9148 l 8.1509,-57.2818 c 0,-0.7394 0.4108,-1.52 0.4108,-2.1774 0,-6.7416 -4.1288,-12.6124 -9.8928,-15.0034 z"
       inkscape:connector-curvature="0"
       style="fill:#ffffff;stroke-width:0.26458314"
       class="xdisimpegno" />
  </g>
</svg>
