<?xml version="1.0" encoding="UTF-8" standalone="no"?>
<!-- Created with Inkscape (http://www.inkscape.org/) -->

<svg
   xmlns:dc="http://purl.org/dc/elements/1.1/"
   xmlns:cc="http://creativecommons.org/ns#"
   xmlns:rdf="http://www.w3.org/1999/02/22-rdf-syntax-ns#"
   xmlns:svg="http://www.w3.org/2000/svg"
   xmlns="http://www.w3.org/2000/svg"
   xmlns:sodipodi="http://sodipodi.sourceforge.net/DTD/sodipodi-0.dtd"
   xmlns:inkscape="http://www.inkscape.org/namespaces/inkscape"
   width="4200.0005mm"
   height="2880.2405mm"
   viewBox="0 0 4200.0005 2880.2405"
   version="1.1"
   id="svg1055"
   inkscape:version="0.92.4 (5da689c313, 2019-01-14)"
   sodipodi:docname="realistic.svg">
  <defs
     id="defs1049">
    <path
       d="M0 0h24v24H0V0z"
       id="a" />
  </defs>
  <sodipodi:namedview
     id="base"
     pagecolor="#ffffff"
     bordercolor="#666666"
     borderopacity="1.0"
     inkscape:pageopacity="0.0"
     inkscape:pageshadow="2"
     inkscape:zoom="0.12374369"
     inkscape:cx="11596.736"
     inkscape:cy="7346.2219"
     inkscape:document-units="mm"
     inkscape:current-layer="layer1"
     showgrid="false"
     fit-margin-top="0"
     fit-margin-left="0"
     fit-margin-right="0"
     fit-margin-bottom="0"
     inkscape:window-width="3840"
     inkscape:window-height="2066"
     inkscape:window-x="2509"
     inkscape:window-y="660"
     inkscape:window-maximized="1"
     inkscape:snap-bbox="false"
     inkscape:bbox-paths="true"
     inkscape:snap-bbox-edge-midpoints="true"
     inkscape:bbox-nodes="true"
     inkscape:snap-bbox-midpoints="true"
     inkscape:object-paths="true"
     inkscape:snap-intersection-paths="true"
     inkscape:snap-smooth-nodes="true"
     inkscape:snap-midpoints="true"
     inkscape:snap-object-midpoints="true"
     inkscape:snap-center="true"
     inkscape:snap-nodes="false"
     inkscape:snap-others="false" />
  <metadata
     id="metadata1052">
    <rdf:RDF>
      <cc:Work
         rdf:about="">
        <dc:format>image/svg+xml</dc:format>
        <dc:type
           rdf:resource="http://purl.org/dc/dcmitype/StillImage" />
        <dc:title></dc:title>
      </cc:Work>
    </rdf:RDF>
  </metadata>
  <g
     inkscape:label="Livello 1"
     inkscape:groupmode="layer"
     id="layer1"
     transform="translate(1956.3693,1250.4656)">
    <rect
       style="display:inline;fill:#f9f9f9;fill-opacity:1;stroke:#f9f9f9;stroke-width:87.80764771;stroke-linecap:butt;stroke-miterlimit:4;stroke-dasharray:none;stroke-opacity:1"
       id="disimpegno"
       width="1182.192"
       height="757.18256"
       x="807.53479"
       y="-546.32147"
       inkscape:label="#rect835-6" />
    <rect
       style="display:inline;fill:#f9f9f9;fill-opacity:1;stroke:#f9f9f9;stroke-width:87.80764771;stroke-linecap:butt;stroke-miterlimit:4;stroke-dasharray:none;stroke-opacity:1"
       id="bagno"
       width="1127.192"
       height="1097.2041"
       x="867.53479"
       y="298.66873"
       inkscape:label="#rect835-6" />
    <rect
       style="display:inline;fill:#f9f9f9;fill-opacity:1;stroke:#f9f9f9;stroke-width:87.80764771;stroke-linecap:butt;stroke-miterlimit:4;stroke-dasharray:none;stroke-opacity:1"
       id="soggiorno"
       width="2423.2837"
       height="1942.7206"
       x="-1702.4653"
       y="-541.58551"
       inkscape:label="#rect835-6" />
    <rect
       style="display:inline;fill:#f9f9f9;fill-opacity:1;stroke:#f9f9f9;stroke-width:87.80765533;stroke-linecap:butt;stroke-miterlimit:4;stroke-dasharray:none;stroke-opacity:1"
       id="esterno"
       width="4112.1929"
       height="572.43256"
       x="-1912.4655"
       y="-1206.5618"
       inkscape:label="#rect835-6" />
    <g
       id="g1335"
       transform="translate(-2815.681,5974.5333)">
      <rect
         y="-6661.3262"
         x="942.7442"
         height="2233.1353"
         width="43.13525"
         id="rect1015"
         style="display:inline;fill:#4d4d4d;fill-opacity:1;stroke:#4d4d4d;stroke-width:166.86476135;stroke-linecap:butt;stroke-miterlimit:4;stroke-dasharray:none;stroke-opacity:1" />
      <rect
         y="-6661.3262"
         x="4932.7441"
         height="2233.1353"
         width="43.13525"
         id="rect1015-6"
         style="display:inline;fill:#4d4d4d;fill-opacity:1;stroke:#4d4d4d;stroke-width:166.86476135;stroke-linecap:butt;stroke-miterlimit:4;stroke-dasharray:none;stroke-opacity:1" />
      <rect
         y="-4533.5742"
         x="860.49591"
         height="187.63193"
         width="577.63196"
         id="rect1032"
         style="display:inline;fill:#4d4d4d;fill-opacity:1;stroke:#4d4d4d;stroke-width:2.36807609;stroke-linecap:butt;stroke-miterlimit:4;stroke-dasharray:none;stroke-opacity:1" />
      <rect
         y="-4533.5762"
         x="1880.4945"
         height="187.63515"
         width="857.63513"
         id="rect867"
         style="display:inline;fill:#4d4d4d;fill-opacity:1;stroke:#4d4d4d;stroke-width:2.36484575;stroke-linecap:butt;stroke-miterlimit:4;stroke-dasharray:none;stroke-opacity:1" />
      <rect
         y="-4533.5762"
         x="3180.4944"
         height="187.63516"
         width="857.63513"
         id="rect867-8"
         style="display:inline;fill:#4d4d4d;fill-opacity:1;stroke:#4d4d4d;stroke-width:2.36484575;stroke-linecap:butt;stroke-miterlimit:4;stroke-dasharray:none;stroke-opacity:1" />
      <rect
         y="-4533.5742"
         x="4478.1313"
         height="187.63193"
         width="577.63202"
         id="rect1032-0"
         style="display:inline;fill:#4d4d4d;fill-opacity:1;stroke:#4d4d4d;stroke-width:2.36807609;stroke-linecap:butt;stroke-miterlimit:4;stroke-dasharray:none;stroke-opacity:1" />
      <rect
         y="-6743.5762"
         x="4470.4941"
         height="177.63516"
         width="587.63513"
         id="rect914"
         style="display:inline;fill:#4d4d4d;fill-opacity:1;stroke:#4d4d4d;stroke-width:2.36484575;stroke-linecap:butt;stroke-miterlimit:4;stroke-dasharray:none;stroke-opacity:1" />
      <rect
         y="-6743.5762"
         x="2040.4944"
         height="177.63515"
         width="1987.6351"
         id="rect867-2"
         style="display:inline;fill:#4d4d4d;fill-opacity:1;stroke:#4d4d4d;stroke-width:2.36484575;stroke-linecap:butt;stroke-miterlimit:4;stroke-dasharray:none;stroke-opacity:1" />
      <rect
         y="-6743.5762"
         x="865.22394"
         height="177.63516"
         width="587.63513"
         id="rect914-4"
         style="display:inline;fill:#4d4d4d;fill-opacity:1;stroke:#4d4d4d;stroke-width:2.36484575;stroke-linecap:butt;stroke-miterlimit:4;stroke-dasharray:none;stroke-opacity:1" />
      <rect
         y="-6564.105"
         x="1069.4027"
         height="257.63516"
         width="197.6351"
         id="rect867-8-2"
         style="display:inline;fill:#4d4d4d;fill-opacity:1;stroke:#4d4d4d;stroke-width:2.36484599;stroke-linecap:butt;stroke-miterlimit:4;stroke-dasharray:none;stroke-opacity:1" />
      <rect
         y="-6563.5747"
         x="3540.4961"
         height="267.63193"
         width="187.63193"
         id="rect1032-4"
         style="display:inline;fill:#4d4d4d;fill-opacity:1;stroke:#4d4d4d;stroke-width:2.36807609;stroke-linecap:butt;stroke-miterlimit:4;stroke-dasharray:none;stroke-opacity:1" />
      <rect
         transform="rotate(-151.0525)"
         y="6431.1758"
         x="1308.9888"
         height="17.635155"
         width="597.63513"
         id="rect867-2-7-8"
         style="display:inline;fill:#aa4400;fill-opacity:1;stroke:#aa4400;stroke-width:2.36484575;stroke-linecap:butt;stroke-miterlimit:4;stroke-dasharray:none;stroke-opacity:1" />
      <rect
         transform="matrix(-0.80683854,-0.59077201,0.38552451,-0.9226976,0,0)"
         y="7384.8862"
         x="-1392.6967"
         height="16.724962"
         width="489.63715"
         id="rect867-2-7-8-2"
         style="display:inline;fill:#aa4400;fill-opacity:1;stroke:#aa4400;stroke-width:2.39838791;stroke-linecap:butt;stroke-miterlimit:4;stroke-dasharray:none;stroke-opacity:1" />
      <rect
         y="-6583.5762"
         x="4030.4944"
         height="17.635155"
         width="437.63516"
         id="rect867-2-7-0"
         style="display:inline;fill:#d5fff6;fill-opacity:1;stroke:#d5fff6;stroke-width:2.36484575;stroke-linecap:butt;stroke-miterlimit:4;stroke-dasharray:none;stroke-opacity:1" />
      <rect
         y="-4533.5742"
         x="4040.4963"
         height="17.635157"
         width="437.63516"
         id="rect867-2-7-0-1"
         style="display:inline;fill:#d5fff6;fill-opacity:1;stroke:#d5fff6;stroke-width:2.36484575;stroke-linecap:butt;stroke-miterlimit:4;stroke-dasharray:none;stroke-opacity:1" />
      <rect
         y="-4533.5762"
         x="2738.1296"
         height="17.635157"
         width="437.63516"
         id="rect867-2-7-0-7"
         style="display:inline;fill:#d5fff6;fill-opacity:1;stroke:#d5fff6;stroke-width:2.36484575;stroke-linecap:butt;stroke-miterlimit:4;stroke-dasharray:none;stroke-opacity:1" />
      <rect
         y="-4533.5757"
         x="1440.4944"
         height="17.635157"
         width="437.63516"
         id="rect867-2-7-0-8"
         style="display:inline;fill:#d5fff6;fill-opacity:1;stroke:#d5fff6;stroke-width:2.36484575;stroke-linecap:butt;stroke-miterlimit:4;stroke-dasharray:none;stroke-opacity:1" />
      <rect
         y="-5883.5762"
         x="3580.4944"
         height="1347.6351"
         width="57.635155"
         id="rect867-8-3"
         style="display:inline;fill:#4d4d4d;fill-opacity:1;stroke:#4d4d4d;stroke-width:2.36484575;stroke-linecap:butt;stroke-miterlimit:4;stroke-dasharray:none;stroke-opacity:1" />
      <rect
         y="-5753.5664"
         x="3640.4944"
         height="47.635155"
         width="227.63515"
         id="rect867-8-3-0"
         style="display:inline;fill:#4d4d4d;fill-opacity:1;stroke:#4d4d4d;stroke-width:2.36484575;stroke-linecap:butt;stroke-miterlimit:4;stroke-dasharray:none;stroke-opacity:1" />
      <rect
         y="-5753.5664"
         x="4250.4941"
         height="47.635155"
         width="597.63513"
         id="rect867-8-25"
         style="display:inline;fill:#4d4d4d;fill-opacity:1;stroke:#4d4d4d;stroke-width:2.36484575;stroke-linecap:butt;stroke-miterlimit:4;stroke-dasharray:none;stroke-opacity:1" />
      <rect
         y="-5738.5859"
         x="4198.9058"
         height="17.635155"
         width="397.63516"
         id="rect867-2-7-3-8"
         style="display:inline;fill:#aa4400;fill-opacity:1;stroke:#aa4400;stroke-width:2.36484575;stroke-linecap:butt;stroke-miterlimit:4;stroke-dasharray:none;stroke-opacity:1" />
    </g>
    <text
       xml:space="preserve"
       style="font-style:normal;font-weight:normal;font-size:10.58333302px;line-height:1.25;font-family:sans-serif;letter-spacing:0px;word-spacing:0px;fill:#000000;fill-opacity:1;stroke:none;stroke-width:0.26458332"
       x="-831.6991"
       y="359.71005"
       id="text841"
       class="xsoggiorno"><tspan
         sodipodi:role="line"
         id="tspan839"
         x="-831.6991"
         y="359.71005"
         style="font-size:105.83333588px;stroke-width:0.26458332">SOGGIORNO</tspan></text>
    <text
       xml:space="preserve"
       style="font-style:normal;font-weight:normal;font-size:10.58333302px;line-height:1.25;font-family:sans-serif;letter-spacing:0px;word-spacing:0px;fill:#000000;fill-opacity:1;stroke:none;stroke-width:0.26458332"
       x="1229.4834"
       y="830.10443"
       id="text845"
       class="xbagno"><tspan
         sodipodi:role="line"
         id="tspan843"
         x="1229.4834"
         y="830.10443"
         style="font-size:105.83333588px;stroke-width:0.26458332">BAGNO</tspan></text>
    <text
       xml:space="preserve"
       style="font-style:normal;font-weight:normal;font-size:105.83332825px;line-height:1.25;font-family:sans-serif;letter-spacing:0px;word-spacing:0px;fill:#000000;fill-opacity:1;stroke:none;stroke-width:0.26458332"
       x="1101.1941"
       y="-63.644886"
       id="text849"
       class="xdisimpegno"><tspan
         sodipodi:role="line"
         id="tspan847"
         x="1101.1941"
         y="-63.644886"
         style="stroke-width:0.26458332">DISIMPEGNO</tspan></text>
    <text
       xml:space="preserve"
       style="font-style:normal;font-weight:normal;font-size:105.83332825px;line-height:1.25;font-family:sans-serif;letter-spacing:0px;word-spacing:0px;fill:#000000;fill-opacity:1;stroke:none;stroke-width:0.26458332"
       x="-864.9649"
       y="457.2196"
       id="tsoggiorno"
       inkscape:label="#text879"><tspan
         sodipodi:role="line"
         id="tspan877"
         x="-864.9649"
         y="457.2196"
         style="stroke-width:0.26458332">_ 째C</tspan></text>
    <text
       xml:space="preserve"
       style="font-style:normal;font-weight:normal;font-size:105.83332825px;line-height:1.25;font-family:sans-serif;letter-spacing:0px;word-spacing:0px;fill:#000000;fill-opacity:1;stroke:none;stroke-width:0.26458332"
       x="-322.05911"
       y="464.09888"
       id="hsoggiorno"
       inkscape:label="#text883"><tspan
         sodipodi:role="line"
         id="tspan881"
         x="-322.05911"
         y="464.09888"
         style="stroke-width:0.26458332">_ %</tspan></text>
    <text
       xml:space="preserve"
       style="font-style:normal;font-weight:normal;font-size:105.83333588px;line-height:1.25;font-family:sans-serif;letter-spacing:0px;word-spacing:0px;fill:#000000;fill-opacity:1;stroke:none;stroke-width:0.26458332"
       x="1024.4025"
       y="968.91949"
       id="tbagno"
       inkscape:label="#text879-0"><tspan
         sodipodi:role="line"
         id="tspan877-8"
         x="1024.4025"
         y="968.91949"
         style="stroke-width:0.26458332">_ 째C</tspan></text>
    <text
       xml:space="preserve"
       style="font-style:normal;font-weight:normal;font-size:105.83333588px;line-height:1.25;font-family:sans-serif;letter-spacing:0px;word-spacing:0px;fill:#000000;fill-opacity:1;stroke:none;stroke-width:0.26458332"
       x="1540.7782"
       y="962.96979"
       id="hbagno"
       inkscape:label="#text883-8"><tspan
         sodipodi:role="line"
         id="tspan881-3"
         x="1540.7782"
         y="962.96979"
         style="stroke-width:0.26458332">_ %</tspan></text>
    <text
       xml:space="preserve"
       style="font-style:normal;font-weight:normal;font-size:105.83333588px;line-height:1.25;font-family:sans-serif;letter-spacing:0px;word-spacing:0px;fill:#000000;fill-opacity:1;stroke:none;stroke-width:0.26458332"
       x="1079.9946"
       y="70.89386"
       id="tdisimpegno"
       inkscape:label="#text879-8"><tspan
         sodipodi:role="line"
         id="tspan877-0"
         x="1079.9946"
         y="70.89386"
         style="stroke-width:0.26458332">_ 째C</tspan></text>
    <text
       xml:space="preserve"
       style="font-style:normal;font-weight:normal;font-size:105.83333588px;line-height:1.25;font-family:sans-serif;letter-spacing:0px;word-spacing:0px;fill:#000000;fill-opacity:1;stroke:none;stroke-width:0.26458332"
       x="1592.0941"
       y="69.22052"
       id="hdisimpegno"
       inkscape:label="#text883-9"><tspan
         sodipodi:role="line"
         id="tspan881-8"
         x="1592.0941"
         y="69.22052"
         style="stroke-width:0.26458332">_ %</tspan></text>
    <text
       xml:space="preserve"
       style="font-style:normal;font-weight:normal;font-size:10.58333302px;line-height:1.25;font-family:sans-serif;letter-spacing:0px;word-spacing:0px;fill:#000000;fill-opacity:1;stroke:none;stroke-width:0.26458332"
       x="-249.67451"
       y="-1072.597"
       id="text841-2"
       class="xesterno"><tspan
         sodipodi:role="line"
         id="tspan839-8"
         x="-249.67451"
         y="-1072.597"
         style="font-size:105.83333588px;stroke-width:0.26458332">ESTERNO</tspan></text>
    <text
       xml:space="preserve"
       style="font-style:normal;font-weight:normal;font-size:105.83333588px;line-height:1.25;font-family:sans-serif;letter-spacing:0px;word-spacing:0px;fill:#000000;fill-opacity:1;stroke:none;stroke-width:0.26458332"
       x="-349.40179"
       y="-945.15314"
       id="testerno"
       inkscape:label="#text879-5"><tspan
         sodipodi:role="line"
         id="tspan877-5"
         x="-349.40179"
         y="-945.15314"
         style="stroke-width:0.26458332">_ 째C</tspan></text>
    <text
       xml:space="preserve"
       style="font-style:normal;font-weight:normal;font-size:105.83333588px;line-height:1.25;font-family:sans-serif;letter-spacing:0px;word-spacing:0px;fill:#000000;fill-opacity:1;stroke:none;stroke-width:0.26458332"
       x="169.49072"
       y="-946.82648"
       id="hesterno"
       inkscape:label="#text883-5"><tspan
         sodipodi:role="line"
         id="tspan881-4"
         x="169.49072"
         y="-946.82648"
         style="stroke-width:0.26458332">_ %</tspan></text>
    <path
       id="path882"
       clip-path="url(#b)"
       d="M -527.86238,673.28757 V 632.6361 c 0,-15.00348 12.17695,-27.17628 27.17629,-27.17628 14.99933,0 27.17628,12.1728 27.17628,27.17628 v 40.65147 c 13.15062,-8.80408 21.73692,-23.69658 21.73692,-40.65147 0,-27.06535 -21.84785,-48.9173 -48.9132,-48.9173 -27.06537,0 -48.91321,21.85195 -48.91321,48.9173 0,16.95489 8.58631,31.84739 21.73692,40.65147 z m 106.95912,50.32643 -49.34868,-24.56344 c -1.84872,-0.7395 -3.8207,-1.19137 -5.86663,-1.19137 h -8.26175 v -65.21898 c 0,-9.02179 -7.28399,-16.30579 -16.30577,-16.30579 -9.02179,0 -16.30577,7.284 -16.30577,16.30579 v 116.74095 l -37.28266,-7.82627 c -0.86274,0 -1.64331,-0.41085 -2.58822,-0.41085 -3.3688,0 -6.41303,1.39679 -8.58631,3.57422 l -8.58631,8.69313 53.69524,53.69933 c 2.91688,2.91687 7.06625,4.78203 11.52374,4.78203 h 73.80528 c 8.15084,0 14.45704,-5.97755 15.65256,-13.91475 l 8.15083,-57.28179 c 0,-0.73944 0.41082,-1.52001 0.41082,-2.17737 0,-6.74167 -4.12881,-12.61244 -9.89273,-15.00342 z"
       inkscape:connector-curvature="0"
       style="fill:#b3b3b3;stroke-width:0.26458314"
       class="xsoggiorno" />
    <path
       id="path882-2"
       clip-path="url(#b)"
       d="m 614.70827,-1049.6481 v -40.6515 c 0,-15.0035 12.1769,-27.1763 27.1763,-27.1763 14.9993,0 27.1763,12.1728 27.1763,27.1763 v 40.6515 c 13.1506,-8.8041 21.7369,-23.6966 21.7369,-40.6515 0,-27.0653 -21.8479,-48.9173 -48.9132,-48.9173 -27.0654,0 -48.9132,21.852 -48.9132,48.9173 0,16.9549 8.5863,31.8474 21.7369,40.6515 z m 106.9591,50.3264 -49.3487,-24.5634 c -1.8487,-0.7395 -3.8207,-1.1914 -5.8666,-1.1914 h -8.2618 v -65.219 c 0,-9.0218 -7.2839,-16.3058 -16.3057,-16.3058 -9.0218,0 -16.3058,7.284 -16.3058,16.3058 v 116.741 l -37.2827,-7.8263 c -0.8627,0 -1.6433,-0.4109 -2.5882,-0.4109 -3.3688,0 -6.413,1.3968 -8.5863,3.5743 l -8.5863,8.6931 53.6952,53.6993 c 2.9169,2.9169 7.0663,4.7821 11.5238,4.7821 h 73.8053 c 8.1508,0 14.457,-5.9776 15.6525,-13.9148 l 8.1509,-57.2818 c 0,-0.7394 0.4108,-1.52 0.4108,-2.1774 0,-6.7416 -4.1288,-12.6124 -9.8928,-15.0034 z"
       inkscape:connector-curvature="0"
       style="fill:#b3b3b3;stroke-width:0.26458314"
       class="xesterno" />
    <path
       id="path882-1"
       clip-path="url(#b)"
       d="m 1384.6489,-384.41003 v -40.6515 c 0,-15.0035 12.1769,-27.1763 27.1763,-27.1763 14.9993,0 27.1763,12.1728 27.1763,27.1763 v 40.6515 c 13.1506,-8.8041 21.7369,-23.6966 21.7369,-40.6515 0,-27.0653 -21.8479,-48.9173 -48.9132,-48.9173 -27.0654,0 -48.9132,21.852 -48.9132,48.9173 0,16.9549 8.5863,31.8474 21.7369,40.6515 z m 106.9591,50.3264 -49.3487,-24.5634 c -1.8487,-0.7395 -3.8207,-1.1914 -5.8666,-1.1914 h -8.2618 v -65.219 c 0,-9.0218 -7.2839,-16.3058 -16.3057,-16.3058 -9.0218,0 -16.3058,7.284 -16.3058,16.3058 v 116.741 l -37.2827,-7.8263 c -0.8627,0 -1.6433,-0.4109 -2.5882,-0.4109 -3.3688,0 -6.413,1.3968 -8.5863,3.5743 l -8.5863,8.6931 53.6952,53.6993 c 2.9169,2.9169 7.0663,4.7821 11.5238,4.7821 h 73.8053 c 8.1508,0 14.457,-5.9776 15.6525,-13.9148 l 8.1509,-57.2818 c 0,-0.7394 0.4108,-1.52 0.4108,-2.1774 0,-6.7416 -4.1288,-12.6124 -9.8928,-15.0034 z"
       inkscape:connector-curvature="0"
       style="fill:#b3b3b3;stroke-width:0.26458314"
       class="xdisimpegno" />
    <path
       id="path882-7"
       clip-path="url(#b)"
       d="m 1400.8988,1218.209 v -40.6515 c 0,-15.0035 12.1769,-27.1763 27.1763,-27.1763 14.9993,0 27.1763,12.1728 27.1763,27.1763 v 40.6515 c 13.1506,-8.8041 21.7369,-23.6966 21.7369,-40.6515 0,-27.0653 -21.8479,-48.9173 -48.9132,-48.9173 -27.0654,0 -48.9132,21.852 -48.9132,48.9173 0,16.9549 8.5863,31.8474 21.7369,40.6515 z m 106.9591,50.3264 -49.3487,-24.5634 c -1.8487,-0.7395 -3.8207,-1.1914 -5.8666,-1.1914 h -8.2618 v -65.219 c 0,-9.0218 -7.2839,-16.3058 -16.3057,-16.3058 -9.0218,0 -16.3058,7.284 -16.3058,16.3058 v 116.741 l -37.2827,-7.8263 c -0.8627,0 -1.6433,-0.4109 -2.5882,-0.4109 -3.3688,0 -6.413,1.3968 -8.5863,3.5743 l -8.5863,8.6931 53.6952,53.6993 c 2.9169,2.9169 7.0663,4.7821 11.5238,4.7821 h 73.8053 c 8.1508,0 14.457,-5.9776 15.6525,-13.9148 l 8.1509,-57.2818 c 0,-0.7394 0.4108,-1.52 0.4108,-2.1774 0,-6.7416 -4.1288,-12.6124 -9.8928,-15.0034 z"
       inkscape:connector-curvature="0"
       style="fill:#b3b3b3;stroke-width:0.26458314"
       class="xbagno" />
  </g>
</svg>
